<svg width="831.51875px" height="142.39999999999998px" xmlns="http://www.w3.org/2000/svg" viewBox="-165.75937499999998 3.8000000000000114 831.51875 142.39999999999998" style="background: rgba(0, 0, 0, 0);" preserveAspectRatio="xMidYMid">
  <defs>
    <linearGradient id="editing-outline-gradient" x1="0.09326335692419979" x2="0.9067366430758002" y1="-0.41354545764260087" y2="1.4135454576426008">
      <stop offset="0" stop-color="#ee4208"></stop>
      <stop offset="1" stop-color="#4139ff"></stop>
    </linearGradient>
    <filter id="editing-outline" x="-100%" y="-100%" width="300%" height="300%">
      <feMorphology in="SourceGraphic" operator="dilate" radius="3" result="outline"></feMorphology>
      <feComposite operator="out" in="outline" in2="SourceAlpha"></feComposite>
    </filter>
  </defs>
  <g filter="url(#editing-outline)">
    <g transform="translate(-47.45501434803009, 110.80500030517578)">
      <path d="M34.19-11.86L34.19-11.86L34.19-11.86Q35.65-10.01 35.65-7.01L35.65-7.01L35.65-7.01Q35.65-2.85 32.57-0.65L32.57-0.65L32.57-0.65Q29.49 1.54 24.64 1.54L24.64 1.54L24.64 1.54Q21.87 1.54 17.63 0.92L17.63 0.92L17.63 0.92Q9.32-0.39 6.78-0.39L6.78-0.39L6.78-0.39Q4.24-0.39 3.23-0.27L3.23-0.27L3.23-0.27Q2.23-0.15 0.62 0L0.62 0L10.09-50.82L43.27-50.82L43.27-50.82Q43.27-46.12 41.00-43.66L41.00-43.66L41.00-43.66Q38.73-41.20 34.27-41.20L34.27-41.20L34.27-41.20Q29.80-41.20 25.26-43.27L25.26-43.27L22.87-29.80L36.58-29.80L36.58-29.80Q36.58-25.72 34.57-23.45L34.57-23.45L34.57-23.45Q32.57-21.18 29.22-21.18L29.22-21.18L29.22-21.18Q25.87-21.18 23.79-21.95L23.79-21.95L23.79-21.95Q21.71-22.71 21.48-22.95L21.48-22.95L18.71-8.39L18.71-8.39Q20.56-8.16 24.02-8.16L24.02-8.16L24.02-8.16Q29.95-8.16 34.19-11.86ZM70.69-37.96L70.69-37.96L70.69-37.96Q73.23-40.81 77.62-40.81L77.62-40.81L77.62-40.81Q80.31-40.81 82.39-39.35L82.39-39.35L82.39-39.35Q84.47-37.88 84.47-35.15L84.47-35.15L84.47-35.15Q84.47-32.42 83.62-29.49L83.62-29.49L83.62-29.49Q82.78-26.57 81.47-23.56L81.47-23.56L81.47-23.56Q78.85-17.71 75.23-12.86L75.23-12.86L75.23-12.86Q70.15-5.85 65.26-2.16L65.26-2.16L65.26-2.16Q60.37 1.54 55.05 1.54L55.05 1.54L55.05 1.54Q50.74 1.54 48.13 0.54L48.13 0.54L48.13 0.54Q47.66-15.63 47.09-21.41L47.09-21.41L47.09-21.41Q46.51-27.18 46.05-30.34L46.05-30.34L46.05-30.34Q45.28-36.50 42.97-37.96L42.97-37.96L42.97-37.96Q44.74-39.50 46.47-40.16L46.47-40.16L46.47-40.16Q48.20-40.81 51.78-40.81L51.78-40.81L51.78-40.81Q55.36-40.81 57.90-38.00L57.90-38.00L57.90-38.00Q60.45-35.19 60.95-30.22L60.95-30.22L60.95-30.22Q61.45-25.26 61.45-19.25L61.45-19.25L61.45-19.25Q61.45-13.24 60.98-6.01L60.98-6.01L60.98-6.01Q63.37-7.70 65.91-12.86L65.91-12.86L65.91-12.86Q69.38-20.02 70.61-28.64L70.61-28.64L70.61-28.64Q70.99-31.26 70.99-34.03L70.99-34.03L70.99-34.03Q70.99-36.81 70.69-37.96ZM105.03-4.24L105.03-4.24L105.03-4.24Q102.64 1.54 95.02 1.54L95.02 1.54L95.02 1.54Q91.09 1.54 88.63-1.16L88.63-1.16L88.63-1.16Q86.55-3.54 86.55-5.93L86.55-5.93L86.55-5.93Q86.55-12.17 89.40-24.33L89.40-24.33L92.25-39.27L107.88-40.81L103.18-16.48L103.18-16.48Q101.87-10.78 101.87-8.78L101.87-8.78L101.87-8.78Q101.87-4.39 105.03-4.24ZM93.63-49.97L93.63-49.97L93.63-49.97Q93.63-52.98 96.13-54.59L96.13-54.59L96.13-54.59Q98.64-56.21 102.26-56.21L102.26-56.21L102.26-56.21Q105.88-56.21 108.07-54.59L108.07-54.59L108.07-54.59Q110.26-52.98 110.26-49.97L110.26-49.97L110.26-49.97Q110.26-46.97 107.84-45.43L107.84-45.43L107.84-45.43Q105.41-43.89 101.79-43.89L101.79-43.89L101.79-43.89Q98.18-43.89 95.90-45.43L95.90-45.43L95.90-45.43Q93.63-46.97 93.63-49.97ZM135.83-40.81L135.83-40.81L135.83-40.81Q138.60-40.81 140.76-40.19L140.76-40.19L140.76-40.19Q140.83-40.50 140.99-41.35L140.99-41.35L141.37-43.74L141.37-43.74Q141.68-45.28 142.14-47.82L142.14-47.82L143.37-53.90L158.70-55.44L150.15-10.78L150.15-10.78Q150.07-10.32 150.07-9.55L150.07-9.55L150.07-8.32L150.07-8.32Q150.07-6.62 150.92-5.35L150.92-5.35L150.92-5.35Q151.77-4.08 153.15-4.08L153.15-4.08L153.15-4.08Q151.61-0.46 146.92 1.08L146.92 1.08L146.92 1.08Q145.30 1.54 143.03 1.54L143.03 1.54L143.03 1.54Q140.76 1.54 138.68 0.35L138.68 0.35L138.68 0.35Q136.60-0.85 135.98-2.85L135.98-2.85L135.98-2.85Q134.75-0.85 132.29 0.35L132.29 0.35L132.29 0.35Q129.82 1.54 126.24 1.54L126.24 1.54L126.24 1.54Q122.66 1.54 119.70 0.62L119.70 0.62L119.70 0.62Q116.73-0.31 114.88-2.31L114.88-2.31L114.88-2.31Q111.50-6.24 111.50-15.17L111.50-15.17L111.50-15.17Q111.50-26.72 118.27-33.73L118.27-33.73L118.27-33.73Q125.05-40.81 135.83-40.81ZM135.29-36.19L135.29-36.19L135.29-36.19Q132.44-36.19 130.90-33.11L130.90-33.11L130.90-33.11Q129.36-30.03 127.78-22.41L127.78-22.41L127.78-22.41Q126.20-14.78 126.20-7.93L126.20-7.93L126.20-7.93Q126.20-3.23 128.98-3.23L128.98-3.23L128.98-3.23Q131.44-3.23 133.17-5.70L133.17-5.70L133.17-5.70Q134.90-8.16 135.60-12.24L135.60-12.24L139.75-34.80L139.75-34.80Q138.14-36.19 135.29-36.19ZM190.88-13.01L190.88-13.01L190.88-13.01Q192.81-11.70 192.81-8.82L192.81-8.82L192.81-8.82Q192.81-5.93 191.35-4.08L191.35-4.08L191.35-4.08Q189.88-2.23 187.50-1.00L187.50-1.00L187.50-1.00Q182.57 1.54 177.25 1.54L177.25 1.54L177.25 1.54Q171.94 1.54 168.82 0.39L168.82 0.39L168.82 0.39Q165.70-0.77 163.63-2.93L163.63-2.93L163.63-2.93Q159.54-7.01 159.54-14.48L159.54-14.48L159.54-14.48Q159.54-26.10 165.86-33.19L165.86-33.19L165.86-33.19Q172.63-40.81 184.42-40.81L184.42-40.81L184.42-40.81Q191.73-40.81 195.35-37.73L195.35-37.73L195.35-37.73Q198.04-35.42 198.04-31.65L198.04-31.65L198.04-31.65Q198.04-18.09 174.64-18.09L174.64-18.09L174.64-18.09Q174.33-16.09 174.33-14.40L174.33-14.40L174.33-14.40Q174.33-10.86 175.91-9.51L175.91-9.51L175.91-9.51Q177.49-8.16 180.41-8.16L180.41-8.16L180.41-8.16Q183.34-8.16 186.46-9.51L186.46-9.51L186.46-9.51Q189.57-10.86 190.88-13.01ZM175.18-21.41L175.18-21.41L175.18-21.41Q180.64-21.41 183.80-24.79L183.80-24.79L183.80-24.79Q186.96-28.03 186.96-33.19L186.96-33.19L186.96-33.19Q186.96-34.96 186.30-35.92L186.30-35.92L186.30-35.92Q185.65-36.88 184.34-36.88L184.34-36.88L184.34-36.88Q183.03-36.88 181.91-36.38L181.91-36.38L181.91-36.38Q180.80-35.88 179.64-34.19L179.64-34.19L179.64-34.19Q176.79-30.34 175.18-21.41ZM233.23 1.54L233.23 1.54L233.23 1.54Q223.92 1.54 223.92-5.70L223.92-5.70L223.92-5.70Q223.99-7.70 224.61-11.09L224.61-11.09L226.00-18.17L226.00-18.17Q228.07-28.18 228.07-30.41L228.07-30.41L228.07-30.41Q228.07-34.88 225.46-34.88L225.46-34.88L225.46-34.88Q221.07-34.88 218.76-23.41L218.76-23.41L214.21 0L198.74 1.54L206.75-39.35L219.37-40.81L218.14-33.26L218.14-33.26Q221.76-40.81 232.85-40.81L232.85-40.81L232.85-40.81Q238.24-40.81 240.51-38.54L240.51-38.54L240.51-38.54Q242.78-36.27 242.78-31.18L242.78-31.18L242.78-31.18Q242.78-26.41 240.32-15.25L240.32-15.25L240.32-15.25Q239.16-10.24 239.16-8.35L239.16-8.35L239.16-8.35Q239.16-6.47 240.20-5.39L240.20-5.39L240.20-5.39Q241.24-4.31 242.78-4.16L242.78-4.16L242.78-4.16Q242.01-1.54 239.35 0L239.35 0L239.35 0Q236.70 1.54 233.23 1.54ZM250.17-7.70L250.17-7.70L250.17-7.70Q250.17-9.78 251.25-15.02L251.25-15.02L255.33-35.80L250.79-35.80L251.10-38.12L251.10-38.12Q260.34-40.89 269.27-47.66L269.27-47.66L272.97-47.66L271.12-39.27L277.12-39.27L276.43-35.80L270.50-35.80L266.57-15.02L266.57-15.02Q265.57-10.24 265.57-8.62L265.57-8.62L265.57-8.62Q265.57-4.93 268.81-4.16L268.81-4.16L268.81-4.16Q268.04-1.54 265.26 0L265.26 0L265.26 0Q262.49 1.54 258.57 1.54L258.57 1.54L258.57 1.54Q254.64 1.54 252.41-0.92L252.41-0.92L252.41-0.92Q250.17-3.39 250.17-7.70ZM299.76-27.03L299.76-27.03L299.76-27.03Q300.84-29.88 300.84-32.34L300.84-32.34L300.84-32.34Q300.84-36.88 297.14-36.88L297.14-36.88L297.14-36.88Q295.22-36.88 293.64-35.15L293.64-35.15L293.64-35.15Q292.06-33.42 292.06-31.26L292.06-31.26L292.06-31.26Q292.06-29.72 293.29-28.49L293.29-28.49L293.29-28.49Q295.06-26.80 299.61-24.02L299.61-24.02L299.61-24.02Q304.15-21.25 305.88-18.98L305.88-18.98L305.88-18.98Q307.62-16.71 307.62-13.59L307.62-13.59L307.62-13.59Q307.62-10.47 306.11-7.62L306.11-7.62L306.11-7.62Q304.61-4.77 301.92-2.77L301.92-2.77L301.92-2.77Q296.14 1.54 286.90 1.54L286.90 1.54L286.90 1.54Q281.90 1.54 278.05-1.08L278.05-1.08L278.05-1.08Q274.20-3.62 274.20-6.62L274.20-6.62L274.20-6.62Q274.20-9.63 276.39-11.40L276.39-11.40L276.39-11.40Q278.59-13.17 281.82-13.17L281.82-13.17L281.82-13.17Q285.05-13.17 287.06-11.94L287.06-11.94L287.06-11.94Q286.06-9.39 286.06-7.70L286.06-7.70L286.06-7.70Q286.06-2.62 290.37-2.62L290.37-2.62L290.37-2.62Q292.22-2.62 293.45-3.77L293.45-3.77L293.45-3.77Q294.68-4.93 294.68-6.93L294.68-6.93L294.68-6.93Q294.68-10.86 288.06-15.02L288.06-15.02L288.06-15.02Q282.67-18.56 281.44-19.94L281.44-19.94L281.44-19.94Q279.36-22.41 279.36-25.49L279.36-25.49L279.36-25.49Q279.36-28.57 280.82-31.49L280.82-31.49L280.82-31.49Q282.28-34.42 284.98-36.50L284.98-36.50L284.98-36.50Q290.60-40.81 300.38-40.81L300.38-40.81L300.38-40.81Q305.38-40.81 308.35-38.81L308.35-38.81L308.35-38.81Q311.31-36.81 311.31-33.42L311.31-33.42L311.31-33.42Q311.31-30.03 309.27-28.11L309.27-28.11L309.27-28.11Q307.23-26.18 303.53-26.18L303.53-26.18L303.53-26.18Q300.99-26.18 299.76-27.03ZM332.64-4.24L332.64-4.24L332.64-4.24Q330.25 1.54 322.63 1.54L322.63 1.54L322.63 1.54Q318.70 1.54 316.24-1.16L316.24-1.16L316.24-1.16Q314.16-3.54 314.16-5.93L314.16-5.93L314.16-5.93Q314.16-12.17 317.01-24.33L317.01-24.33L319.86-39.27L335.49-40.81L330.79-16.48L330.79-16.48Q329.48-10.78 329.48-8.78L329.48-8.78L329.48-8.78Q329.48-4.39 332.64-4.24ZM321.24-49.97L321.24-49.97L321.24-49.97Q321.24-52.98 323.75-54.59L323.75-54.59L323.75-54.59Q326.25-56.21 329.87-56.21L329.87-56.21L329.87-56.21Q333.49-56.21 335.68-54.59L335.68-54.59L335.68-54.59Q337.88-52.98 337.88-49.97L337.88-49.97L337.88-49.97Q337.88-46.97 335.45-45.43L335.45-45.43L335.45-45.43Q333.02-43.89 329.41-43.89L329.41-43.89L329.41-43.89Q325.79-43.89 323.52-45.43L323.52-45.43L323.52-45.43Q321.24-46.97 321.24-49.97ZM371.76 1.54L371.76 1.54L371.76 1.54Q362.44 1.54 362.44-5.70L362.44-5.70L362.44-5.70Q362.52-7.70 363.13-11.09L363.13-11.09L364.52-18.17L364.52-18.17Q366.60-28.18 366.60-30.41L366.60-30.41L366.60-30.41Q366.60-34.88 363.98-34.88L363.98-34.88L363.98-34.88Q359.59-34.88 357.28-23.41L357.28-23.41L352.74 0L337.26 1.54L345.27-39.35L357.90-40.81L356.66-33.26L356.66-33.26Q360.28-40.81 371.37-40.81L371.37-40.81L371.37-40.81Q376.76-40.81 379.03-38.54L379.03-38.54L379.03-38.54Q381.30-36.27 381.30-31.18L381.30-31.18L381.30-31.18Q381.30-26.41 378.84-15.25L378.84-15.25L378.84-15.25Q377.68-10.24 377.68-8.35L377.68-8.35L377.68-8.35Q377.68-6.47 378.72-5.39L378.72-5.39L378.72-5.39Q379.76-4.31 381.30-4.16L381.30-4.16L381.30-4.16Q380.53-1.54 377.88 0L377.88 0L377.88 0Q375.22 1.54 371.76 1.54ZM392.93-32.19L392.93-32.19L392.93-32.19Q395.55-35.88 399.51-38.35L399.51-38.35L399.51-38.35Q403.48-40.81 408.33-40.81L408.33-40.81L408.33-40.81Q413.18-40.81 415.49-39.27L415.49-39.27L430.58-40.81L425.35-11.24L425.35-11.24Q422.65 3.85 416.95 9.78L416.95 9.78L416.95 9.78Q411.49 15.40 400.86 15.40L400.86 15.40L400.86 15.40Q392.78 15.40 388.16 12.86L388.16 12.86L388.16 12.86Q383.54 10.32 383.54 6.08L383.54 6.08L383.54 6.08Q383.54 2.93 385.92 1.12L385.92 1.12L385.92 1.12Q388.31-0.69 392.01-0.69L392.01-0.69L392.01-0.69Q395.24-0.69 397.70 0.77L397.70 0.77L397.70 0.77Q399.17 1.54 399.86 2.62L399.86 2.62L399.86 2.62Q398.09 4.16 398.09 6.70L398.09 6.70L398.09 6.70Q398.09 10.01 401.17 10.01L401.17 10.01L401.17 10.01Q406.33 10.01 409.25-2.16L409.25-2.16L409.25-2.16Q410.10-5.47 410.79-8.78L410.79-8.78L410.79-8.78Q407.33-4.54 399.48-4.54L399.48-4.54L399.48-4.54Q394.01-4.54 390.85-7.16L390.85-7.16L390.85-7.16Q387.69-9.78 387.69-15.94L387.69-15.94L387.69-15.94Q387.69-19.79 389.00-24.14L389.00-24.14L389.00-24.14Q390.31-28.49 392.93-32.19ZM402.94-15.71L402.94-15.71L402.94-15.71Q402.94-10.47 405.64-10.47L405.64-10.47L405.64-10.47Q407.48-10.47 409.25-12.47L409.25-12.47L409.25-12.47Q410.64-14.09 411.18-16.48L411.18-16.48L415.11-36.27L415.11-36.27Q414.72-36.34 414.34-36.50L414.34-36.50L414.34-36.50Q413.57-36.81 412.57-36.81L412.57-36.81L412.57-36.81Q407.87-36.81 405.10-29.11L405.10-29.11L405.10-29.11Q402.94-23.10 402.94-15.71ZM464.77-13.01L464.77-13.01L464.77-13.01Q466.70-11.70 466.70-8.82L466.70-8.82L466.70-8.82Q466.70-5.93 465.23-4.08L465.23-4.08L465.23-4.08Q463.77-2.23 461.38-1.00L461.38-1.00L461.38-1.00Q456.46 1.54 451.14 1.54L451.14 1.54L451.14 1.54Q445.83 1.54 442.71 0.39L442.71 0.39L442.71 0.39Q439.59-0.77 437.51-2.93L437.51-2.93L437.51-2.93Q433.43-7.01 433.43-14.48L433.43-14.48L433.43-14.48Q433.43-26.10 439.75-33.19L439.75-33.19L439.75-33.19Q446.52-40.81 458.30-40.81L458.30-40.81L458.30-40.81Q465.62-40.81 469.24-37.73L469.24-37.73L469.24-37.73Q471.93-35.42 471.93-31.65L471.93-31.65L471.93-31.65Q471.93-18.09 448.52-18.09L448.52-18.09L448.52-18.09Q448.22-16.09 448.22-14.40L448.22-14.40L448.22-14.40Q448.22-10.86 449.80-9.51L449.80-9.51L449.80-9.51Q451.37-8.16 454.30-8.16L454.30-8.16L454.30-8.16Q457.23-8.16 460.34-9.51L460.34-9.51L460.34-9.51Q463.46-10.86 464.77-13.01ZM449.06-21.41L449.06-21.41L449.06-21.41Q454.53-21.41 457.69-24.79L457.69-24.79L457.69-24.79Q460.84-28.03 460.84-33.19L460.84-33.19L460.84-33.19Q460.84-34.96 460.19-35.92L460.19-35.92L460.19-35.92Q459.54-36.88 458.23-36.88L458.23-36.88L458.23-36.88Q456.92-36.88 455.80-36.38L455.80-36.38L455.80-36.38Q454.68-35.88 453.53-34.19L453.53-34.19L453.53-34.19Q450.68-30.34 449.06-21.41ZM498.65-21.64L498.65-21.64L498.65-21.64Q501.42-26.57 501.42-31.57L501.42-31.57L501.42-31.57Q501.42-34.88 499.04-34.88L499.04-34.88L499.04-34.88Q497.19-34.88 495.26-31.72L495.26-31.72L495.26-31.72Q493.26-28.57 492.65-24.49L492.65-24.49L488.64 0L472.70 1.54L480.56-39.27L493.26-40.81L491.88-33.03L491.88-33.03Q495.65-40.81 504.12-40.81L504.12-40.81L504.12-40.81Q508.58-40.81 511.01-38.50L511.01-38.50L511.01-38.50Q513.44-36.19 513.44-31.45L513.44-31.45L513.44-31.45Q513.44-26.72 510.32-23.72L510.32-23.72L510.32-23.72Q507.20-20.71 501.89-20.71L501.89-20.71L501.89-20.71Q499.58-20.71 498.65-21.64ZM528.91 1.00L523.98 0.85L523.98 0.85Q521.60 0.77 519.10 0.77L519.10 0.77L519.10 0.77Q516.59 0.77 514.13 1.08L514.13 1.08L514.13 1.08Q513.82-0.15 513.82-1.62L513.82-1.62L513.82-1.62Q513.82-4.70 515.55-6.54L515.55-6.54L515.55-6.54Q517.29-8.39 519.98-8.39L519.98-8.39L524.14-8.39L530.61-37.50L530.61-37.50Q528.22-35.11 523.29-35.11L523.29-35.11L523.29-35.11Q520.83-35.11 518.90-37.42L518.90-37.42L518.90-37.42Q516.98-39.58 516.67-42.66L516.67-42.66L516.67-42.66Q528.07-44.66 545.08-52.28L545.08-52.28L547.55-49.36L540.08-8.39L542.00-8.39L542.00-8.39Q546.62-8.39 549.01-9.24L549.01-9.24L549.01-9.24Q550.01-7.55 550.01-4.77L550.01-4.77L550.01-4.77Q550.01-2.00 547.97-0.35L547.97-0.35L547.97-0.35Q545.93 1.31 542.54 1.31L542.54 1.31L542.54 1.31Q535.69 1.31 528.91 1.00L528.91 1.00ZM593.44-20.25L593.44-20.25L593.44-20.25Q594.29-18.63 594.29-15.48L594.29-15.48L594.29-15.48Q594.29-12.32 591.94-10.13L591.94-10.13L591.94-10.13Q589.59-7.93 584.43-7.93L584.43-7.93L583.97-7.93L582.74 0L582.74 0Q580.66 1.54 576.96 1.54L576.96 1.54L576.96 1.54Q572.19 1.54 570.65-1.39L570.65-1.39L570.65-1.39Q570.03-2.46 570.03-3.39L570.03-3.39L570.03-3.39Q570.03-4.47 570.18-5.70L570.18-5.70L570.72-8.62L553.01-10.47L553.01-20.17L581.81-52.44L581.81-52.36L581.89-52.44L592.59-51.28L592.59-51.28Q588.97-36.50 585.89-19.48L585.89-19.48L587.66-19.48L587.66-19.48Q592.05-19.48 593.44-20.25ZM577.96-39.50L561.25-20.02L572.88-19.63L572.88-19.63Q575.42-30.95 577.96-39.50L577.96-39.50Z" fill="url(#editing-outline-gradient)"></path>
    </g>
  </g>
  <style>
    text {
      font-size: 64px;
      font-family: Arial Black;
      dominant-baseline: central;
      text-anchor: middle;
    }
  </style>
</svg>